<svg xmlns="http://www.w3.org/2000/svg" width="32" height="32"><path d="M25.7 7.1C23.9 6.3 22 5.7 20 5.3h-.1l-.7 1.5c-2.2-.3-4.3-.3-6.4 0-.2-.5-.5-1-.7-1.5H12a18.95 18.95 0 0 0-5.7 1.8C2.7 12.5 1.7 17.8 2.2 23v.1c2.4 1.8 4.7 2.8 7 3.5h.1a17.61 17.61 0 0 0 1.4-2.3v-.1c-.8-.3-1.5-.6-2.2-1-.1 0-.1-.1 0-.1.1-.1.3-.2.4-.3H9c4.6 2.1 9.5 2.1 14.1 0h.1c.1.1.3.2.4.3.1 0 0 .1 0 .1-.7.4-1.4.8-2.2 1 0 0-.1.1 0 .1a17.61 17.61 0 0 0 1.4 2.3h.1c2.3-.7 4.6-1.8 7-3.5V23c.6-6-1-11.2-4.2-15.9zM11.4 19.9c-1.4 0-2.5-1.3-2.5-2.8s1.1-2.8 2.5-2.8 2.5 1.3 2.5 2.8-1.1 2.8-2.5 2.8zm9.3 0c-1.4 0-2.5-1.3-2.5-2.8s1.1-2.8 2.5-2.8 2.5 1.3 2.5 2.8-1.1 2.8-2.5 2.8z"/></svg>