<svg xmlns="http://www.w3.org/2000/svg" width="32" height="32"><circle cx="22.406" cy="9.594" r="1.44"/><path d="M16 9.838A6.162 6.162 0 1 0 22.162 16 6.162 6.162 0 0 0 16 9.838zM16 20a4 4 0 1 1 4-4 4 4 0 0 1-4 4zm0-13.838l4.849.07a6.642 6.642 0 0 1 2.228.413 3.975 3.975 0 0 1 2.277 2.277 6.642 6.642 0 0 1 .413 2.228l.07 4.849-.07 4.849a6.642 6.642 0 0 1-.413 2.228 3.975 3.975 0 0 1-2.277 2.277 6.642 6.642 0 0 1-2.228.413l-4.849.07c-3.204 0-3.584-.012-4.849-.07a6.642 6.642 0 0 1-2.228-.413 3.975 3.975 0 0 1-2.277-2.277 6.642 6.642 0 0 1-.413-2.228L6.162 16l.07-4.849a6.642 6.642 0 0 1 .413-2.228 3.975 3.975 0 0 1 2.277-2.277 6.642 6.642 0 0 1 2.228-.413L16 6.162M16 4l-4.948.072a8.807 8.807 0 0 0-2.912.558 6.136 6.136 0 0 0-3.51 3.51 8.807 8.807 0 0 0-.558 2.913L4 16l.072 4.948a8.807 8.807 0 0 0 .558 2.913 6.136 6.136 0 0 0 3.51 3.51 8.807 8.807 0 0 0 2.913.558L16 28l4.948-.072a8.807 8.807 0 0 0 2.913-.558 6.136 6.136 0 0 0 3.51-3.51 8.807 8.807 0 0 0 .558-2.913L28 16l-.072-4.948a8.807 8.807 0 0 0-.558-2.912 6.136 6.136 0 0 0-3.51-3.509 8.807 8.807 0 0 0-2.913-.558L16 4z"/></svg>