<svg xmlns="http://www.w3.org/2000/svg" xmlns:xlink="http://www.w3.org/1999/xlink" width="72" height="72"><path fill="#fff" d="M22 16h28v6H23l-5-4 4-2z"/><path fill="#a57939" fill-rule="evenodd" d="M50 21v.698V56a4 4 0 0 1-4 4H26a4 4 0 0 1-4-4V21.698 21h28z"/><use xlink:href="#B" fill="#3f3f3f"/><path fill="#9b9b9a" d="M34 15.5h3V26l-3-2v-8.5z"/><g fill-rule="evenodd"><path fill="#3f3f3f" d="M50 16.5V15a3 3 0 0 0-3-3H25a3 3 0 0 0-3 3v1.5h28z"/><path fill="#6a462f" d="M50 56H22a4 4 0 0 0 4 4h20a4 4 0 0 0 4-4z"/><path fill="#3f3f3f" d="M50 46v4c7.732 0 14-6.268 14-14s-6.268-14-14-14v4c5.523 0 10 4.477 10 10s-4.477 10-10 10z"/></g><g fill="none" stroke-width="2"><use xlink:href="#B" stroke="#3f3f3f"/><path stroke="#000" stroke-linejoin="round" d="M22 15a3 3 0 0 1 3-3h22a3 3 0 0 1 3 3v2 4.956 2.689V56a4 4 0 0 1-4 4H26a4 4 0 0 1-4-4V21.5L17.5 18l4.5-2.5V15z"/></g><path d="M50 50h-1v1h1v-1zm0-4v-1h-1v1h1zm0-24v-1h-1v1h1zm0 4h-1v1h1v-1zm1 24v-4h-2v4h2zm12-14c0 7.18-5.82 13-13 13v2c8.284 0 15-6.716 15-15h-2zM50 23c7.18 0 13 5.82 13 13h2c0-8.284-6.716-15-15-15v2zm1 3v-4h-2v4h2zm-1 1a9 9 0 0 1 9 9h2c0-6.075-4.925-11-11-11v2zm9 9a9 9 0 0 1-9 9v2c6.075 0 11-4.925 11-11h-2z"/><path d="M22 15.5h25M32.337 10C32.121 9.545 32 9.037 32 8.5a3.5 3.5 0 1 1 7 0c0 .537-.121 1.045-.337 1.5M34 16v8" fill="none" stroke-width="2" stroke="#000" stroke-linecap="round"/><path stroke="#000" stroke-linecap="round" stroke-width="2" d="M37 16v10m-14-4h8"/><path fill="none" stroke="#000" stroke-linecap="round" stroke-width="2" d="M40 22H50"/><defs ><path id="B" d="M35.5 5A3.5 3.5 0 0 0 32 8.5c0 .537.121 1.045.337 1.5h6.326c.216-.455.337-.963.337-1.5A3.5 3.5 0 0 0 35.5 5z"/></defs></svg>